<svg width="96" height="55" viewBox="0 0 96 55" fill="none" xmlns="http://www.w3.org/2000/svg">
<path d="M26.8962 2.75201C32.2486 2.75206 37.0231 4.13101 41.1423 6.93951C45.2784 9.75959 48.1628 13.6704 49.7869 18.5889C49.9881 19.1984 49.8846 19.8676 49.5085 20.3878C49.1326 20.9077 48.5301 21.2157 47.8884 21.2159H37.5837C36.8147 21.2158 36.1138 20.7745 35.781 20.0811C34.9157 18.2784 33.7328 17.0013 32.2439 16.1553C32.2381 16.1521 32.232 16.1479 32.2263 16.1446C30.7393 15.2802 28.9628 14.8165 26.8318 14.8165C24.5607 14.8165 22.5991 15.3515 20.8904 16.3839L20.8796 16.3907C19.2199 17.3795 17.8927 18.7957 16.9001 20.7032C15.9606 22.5897 15.4559 24.8692 15.4558 27.5997C15.4558 30.2789 15.9575 32.5644 16.9041 34.504C17.8942 36.4042 19.2203 37.8425 20.8826 38.8741C22.591 39.8662 24.5558 40.3838 26.8318 40.3839C28.9629 40.3839 30.7393 39.9193 32.2263 39.0547C33.7279 38.1642 34.9154 36.8581 35.781 35.0547L35.8474 34.9278C36.2014 34.3079 36.8626 33.9201 37.5837 33.92H47.8884C48.5292 33.9201 49.1315 34.2274 49.5076 34.7462C49.8836 35.265 49.988 35.933 49.7888 36.5421C48.1666 41.5013 45.2833 45.4374 41.1423 48.2608L41.1384 48.2637C37.0555 51.0325 32.28 52.3838 26.8962 52.3839C22.3174 52.3839 18.117 51.35 14.3406 49.252C14.3321 49.2473 14.3236 49.2422 14.3152 49.2374C10.5931 47.0971 7.63249 44.1346 5.45386 40.3799C5.45075 40.3746 5.44813 40.3687 5.44507 40.3633C3.29387 36.5753 2.23999 32.303 2.23999 27.5997C2.24004 22.8964 3.29386 18.624 5.44507 14.836L5.44897 14.8292C7.62667 11.0299 10.5901 8.05912 14.324 5.95709L15.0378 5.56744C18.6307 3.68268 22.5962 2.75201 26.8962 2.75201ZM61.9412 3.32819L62.0857 3.33307C62.8027 3.3849 63.4416 3.81945 63.7507 4.47662L71.5349 21.0303L79.2654 4.48151L79.3308 4.3526C79.6821 3.7233 80.3487 3.32822 81.0769 3.32819H91.0613C91.7596 3.32829 92.4075 3.69237 92.7703 4.28912C93.133 4.88595 93.1582 5.6291 92.8367 6.24908L77.9568 34.9356V50.0001C77.9568 51.1046 77.0613 52.0001 75.9568 52.0001H66.9968C65.8923 52 64.9969 51.1046 64.9968 50.0001V34.9366L50.0554 6.25201C49.7325 5.63215 49.7565 4.88869 50.1189 4.29108C50.4814 3.69344 51.1299 3.32823 51.8289 3.32819H61.9412Z" fill="#33A05D" stroke="white" stroke-width="4" stroke-linejoin="round"/>
</svg>
